<?xml version="1.0" standalone="no"?>
<!DOCTYPE svg PUBLIC "-//W3C//DTD SVG 20010904//EN"
 "http://www.w3.org/TR/2001/REC-SVG-20010904/DTD/svg10.dtd">
<svg version="1.0" xmlns="http://www.w3.org/2000/svg"
 width="225.000000pt" height="225.000000pt" viewBox="0 0 225.000000 225.000000"
 preserveAspectRatio="xMidYMid meet">

<g transform="translate(0.000000,225.000000) scale(0.100000,-0.100000)"
fill="#000000" stroke="none">
<path d="M564 1956 c-17 -8 -40 -26 -52 -41 l-22 -28 0 -762 0 -762 22 -28
c43 -55 43 -55 613 -55 570 0 570 0 613 55 22 28 22 28 22 596 l0 569 -195 0
-195 0 -32 29 -33 29 -3 206 -3 206 -352 0 c-272 -1 -359 -4 -383 -14z m341
-630 c37 -24 49 -62 35 -108 -12 -42 -41 -62 -107 -73 l-43 -7 0 -50 0 -49
-32 3 -33 3 -3 140 c-1 76 0 145 3 153 8 21 144 11 180 -12z m261 1 c45 -23
67 -76 62 -149 -4 -49 -9 -64 -35 -89 -32 -32 -81 -48 -150 -49 l-43 0 0 156
0 157 68 -5 c37 -3 81 -12 98 -21z m304 -7 c0 -30 -1 -30 -55 -30 l-55 0 0
-34 c0 -34 1 -35 48 -38 43 -3 47 -5 47 -28 0 -23 -4 -25 -47 -28 l-47 -3 -3
-57 c-3 -56 -3 -57 -35 -60 l-33 -3 0 155 0 156 90 0 90 0 0 -30z m-10 -465
l0 -35 -365 0 -365 0 0 35 0 35 365 0 365 0 0 -35z m-162 -157 l3 -38 -285 0
-286 0 0 33 c0 19 3 37 7 40 4 4 131 6 282 5 l276 -3 3 -37z m-220 -155 l-3
-38 -175 0 -175 0 -3 23 c-8 51 -5 52 183 52 l176 0 -3 -37z"/>
<path d="M790 1251 c0 -46 9 -55 50 -46 21 5 32 14 36 31 8 33 -12 54 -52 54
-33 0 -34 -1 -34 -39z"/>
<path d="M1070 1194 l0 -96 28 7 c41 10 54 28 60 84 4 43 1 53 -21 75 -15 14
-35 26 -47 26 -19 0 -20 -6 -20 -96z"/>
</g>
</svg>
